{"title":"Andrew Bayer Live at Madison Square Garden 720p","uid":11325580,"size":1279652429,"categoryP":"video","categoryS":"music_videos","magnet":"?xt=urn:btih:5efe53e13620ae3e7bef70a4dc7c95a9ff38b163&amp;dn=Andrew+Bayer+Live+at+Madison+Square+Garden+720p+&amp;tr=udp%3A%2F%2Ftracker.openbittorrent.com%3A80&amp;tr=udp%3A%2F%2Fopen.demonii.com%3A1337&amp;tr=udp%3A%2F%2Ftracker.coppersurfer.tk%3A6969&amp;tr=udp%3A%2F%2Fexodus.desync.com%3A6969","seeders":0,"leechers":0,"uploader":"Liebe_Ist","files":1,"time":1414625198,"description":"Andrew.Bayer.Live.at.Madison.Square.Garden.720p.VODRip.H264-Liebe_Ist.mp4\n\nFile size                      : 1.19 GiB\nDuration                       : 1h 0mn\nOverall bit rate mode          : Variable\nOverall bit rate               : 2 838 Kbps\n\nVideo\nFormat                         : AVC\nFormat/Info                    : Advanced Video Codec\nFormat profile                 : &lt;a class=&quot;__cf_email__&quot; href=&quot;/cdn-cgi/l/email-protection&quot; data-cfemail=&quot;9fd7f6f8f7dfd3acb1ae&quot;&gt;[email&amp;#160;protected]&lt;/a&gt;&lt;script cf-hash='f9e31' type=&quot;text/javascript&quot;&gt;\n/* &lt;![CDATA[ */!function(){try{var t=&quot;currentScript&quot;in document?document.currentScript:function(){for(var t=document.getElementsByTagName(&quot;script&quot;),e=t.length;e--;)if(t[e].getAttribute(&quot;cf-hash&quot;))return t[e]}();if(t&amp;&amp;t.previousSibling){var e,r,n,i,c=t.previousSibling,a=c.getAttribute(&quot;data-cfemail&quot;);if(a){for(e=&quot;&quot;,r=parseInt(a.substr(0,2),16),n=2;a.length-n;n+=2)i=parseInt(a.substr(n,2),16)^r,e+=String.fromCharCode(i);e=document.createTextNode(e),c.parentNode.replaceChild(e,c)}}}catch(u){}}();/* ]]&gt; */&lt;/script&gt;\nFormat settings, CABAC         : Yes\nDuration                       : 1h 0mn\nBit rate                       : 2 644 Kbps\nMaximum bit rate               : 11.4 Mbps\nWidth                          : 1 280 pixels\nHeight                         : 720 pixels\nDisplay aspect ratio           : 16:9\nFrame rate mode                : Constant\nFrame rate                     : 29.970 fps\nScan type                      : Progressive\nBits/(Pixel*Frame)             : 0.096\nStream size                    : 1.11 GiB (93%)\n\nAudio\nFormat                         : AAC\nFormat/Info                    : Advanced Audio Codec\nFormat profile                 : LC\nCodec ID                       : 40\nDuration                       : 1h 0mn\nBit rate mode                  : Variable\nBit rate                       : 192 Kbps\nMaximum bit rate               : 203 Kbps\nChannel count                  : 2 channels\nChannel positions              : Front: L R\nSampling rate                  : 44.1 KHz\nCompression mode               : Lossy\nStream size                    : 82.6 MiB (7%)","torrent":{"xt":"urn:btih:5efe53e13620ae3e7bef70a4dc7c95a9ff38b163","amp;dn":"Andrew+Bayer+Live+at+Madison+Square+Garden+720p+","amp;tr":["udp%3A%2F%2Ftracker.openbittorrent.com%3A80","udp%3A%2F%2Fopen.demonii.com%3A1337","udp%3A%2F%2Ftracker.coppersurfer.tk%3A6969","udp%3A%2F%2Fexodus.desync.com%3A6969"],"infoHash":"5efe53e13620ae3e7bef70a4dc7c95a9ff38b163","infoHashBuffer":{"type":"Buffer","data":[94,254,83,225,54,32,174,62,123,239,112,164,220,124,149,169,255,56,177,99]},"announce":[],"urlList":[]}}